REM DIRINDEX 1\2\6,1\2\7,1\2\8,1\2\9,1\3\10,1\3\11,1\4\12,1\4\13,1\4\14,1\5\15,1\5\16,1\5\17
REM DIRNAME folder01,folder02,folder03,folder04,folder05,folder06,folder07,folder08,folder09,folder10,folder11,folder12,folder13,folder14,folder15,folder16,folder17
TITLE ""
FILE "1900_2_sec09_0801_0816.mp3" MP3
  TRACK 01 AUDIO
    TITLE "0:"
    INDEX 01 00:00:00
  TRACK 02 AUDIO
    TITLE "12:cjc020_3719"
    INDEX 01 00:03:21
  TRACK 03 AUDIO
    TITLE "0:"
    INDEX 01 00:08:28
  TRACK 04 AUDIO
    TITLE "12:cjc020_3720"
    INDEX 01 00:08:68
  TRACK 05 AUDIO
    TITLE "0:"
    INDEX 01 00:10:35
  TRACK 06 AUDIO
    TITLE "12:cjc020_3721"
    INDEX 01 00:11:03
  TRACK 07 AUDIO
    TITLE "0:"
    INDEX 01 00:12:26
  TRACK 08 AUDIO
    TITLE "13:cjc020_3722"
    INDEX 01 00:13:28
  TRACK 09 AUDIO
    TITLE "0:"
    INDEX 01 00:14:31
  TRACK 10 AUDIO
    TITLE "14:cjc020_3723"
    INDEX 01 00:14:35
  TRACK 11 AUDIO
    TITLE "0:"
    INDEX 01 00:17:04
  TRACK 12 AUDIO
    TITLE "13:cjc020_3724"
    INDEX 01 00:17:57
  TRACK 13 AUDIO
    TITLE "0:"
    INDEX 01 00:18:70
  TRACK 14 AUDIO
    TITLE "14:cjc020_3725"
    INDEX 01 00:18:72
  TRACK 15 AUDIO
    TITLE "0:"
    INDEX 01 00:22:64
  TRACK 16 AUDIO
    TITLE "13:cjc020_3726"
    INDEX 01 00:23:44
  TRACK 17 AUDIO
    TITLE "0:"
    INDEX 01 00:24:63
  TRACK 18 AUDIO
    TITLE "14:cjc020_3727"
    INDEX 01 00:24:67
  TRACK 19 AUDIO
    TITLE "0:"
    INDEX 01 00:29:03
  TRACK 20 AUDIO
    TITLE "13:cjc020_3728"
    INDEX 01 00:29:56
  TRACK 21 AUDIO
    TITLE "0:"
    INDEX 01 00:30:61
  TRACK 22 AUDIO
    TITLE "14:cjc020_3729"
    INDEX 01 00:30:63
  TRACK 23 AUDIO
    TITLE "0:"
    INDEX 01 00:33:05
  TRACK 24 AUDIO
    TITLE "13:cjc020_3730"
    INDEX 01 00:33:60
  TRACK 25 AUDIO
    TITLE "0:"
    INDEX 01 00:34:63
  TRACK 26 AUDIO
    TITLE "14:cjc020_3731"
    INDEX 01 00:34:65
  TRACK 27 AUDIO
    TITLE "0:"
    INDEX 01 00:39:37
  TRACK 28 AUDIO
    TITLE "13:cjc020_3732"
    INDEX 01 00:40:17
  TRACK 29 AUDIO
    TITLE "0:"
    INDEX 01 00:41:24
  TRACK 30 AUDIO
    TITLE "14:cjc020_3733"
    INDEX 01 00:41:28
  TRACK 31 AUDIO
    TITLE "0:"
    INDEX 01 00:44:67
  TRACK 32 AUDIO
    TITLE "13:cjc020_3734"
    INDEX 01 00:45:45
  TRACK 33 AUDIO
    TITLE "0:"
    INDEX 01 00:46:60
  TRACK 34 AUDIO
    TITLE "14:cjc020_3735"
    INDEX 01 00:46:62
  TRACK 35 AUDIO
    TITLE "0:"
    INDEX 01 00:49:70
  TRACK 36 AUDIO
    TITLE "13:cjc020_3736"
    INDEX 01 00:50:50
  TRACK 37 AUDIO
    TITLE "0:"
    INDEX 01 00:52:00
  TRACK 38 AUDIO
    TITLE "14:cjc020_3737"
    INDEX 01 00:52:04
  TRACK 39 AUDIO
    TITLE "0:"
    INDEX 01 00:54:48
  TRACK 40 AUDIO
    TITLE "13:cjc020_3738"
    INDEX 01 00:55:28
  TRACK 41 AUDIO
    TITLE "0:"
    INDEX 01 00:56:41
  TRACK 42 AUDIO
    TITLE "14:cjc020_3739"
    INDEX 01 00:56:47
  TRACK 43 AUDIO
    TITLE "0:"
    INDEX 01 00:59:28
  TRACK 44 AUDIO
    TITLE "13:cjc020_3740"
    INDEX 01 01:00:08
  TRACK 45 AUDIO
    TITLE "0:"
    INDEX 01 01:01:17
  TRACK 46 AUDIO
    TITLE "14:cjc020_3741"
    INDEX 01 01:01:19
  TRACK 47 AUDIO
    TITLE "0:"
    INDEX 01 01:03:43
  TRACK 48 AUDIO
    TITLE "13:cjc020_3742"
    INDEX 01 01:04:21
  TRACK 49 AUDIO
    TITLE "0:"
    INDEX 01 01:05:28
  TRACK 50 AUDIO
    TITLE "14:cjc020_3743"
    INDEX 01 01:05:32
  TRACK 51 AUDIO
    TITLE "0:"
    INDEX 01 01:08:03
  TRACK 52 AUDIO
    TITLE "13:cjc020_3744"
    INDEX 01 01:08:58
  TRACK 53 AUDIO
    TITLE "0:"
    INDEX 01 01:09:65
  TRACK 54 AUDIO
    TITLE "14:cjc020_3745"
    INDEX 01 01:09:69
  TRACK 55 AUDIO
    TITLE "0:"
    INDEX 01 01:12:50
  TRACK 56 AUDIO
    TITLE "13:cjc020_3746"
    INDEX 01 01:13:26
  TRACK 57 AUDIO
    TITLE "0:"
    INDEX 01 01:14:23
  TRACK 58 AUDIO
    TITLE "14:cjc020_3747"
    INDEX 01 01:14:27
  TRACK 59 AUDIO
    TITLE "0:"
    INDEX 01 01:19:28
  TRACK 60 AUDIO
    TITLE "13:cjc020_3748"
    INDEX 01 01:20:10
  TRACK 61 AUDIO
    TITLE "0:"
    INDEX 01 01:21:20
  TRACK 62 AUDIO
    TITLE "14:cjc020_3749"
    INDEX 01 01:21:23
  TRACK 63 AUDIO
    TITLE "0:"
    INDEX 01 01:23:71
  TRACK 64 AUDIO
    TITLE "13:cjc020_3750"
    INDEX 01 01:24:49
  TRACK 65 AUDIO
    TITLE "0:"
    INDEX 01 01:25:70
  TRACK 66 AUDIO
    TITLE "14:cjc020_3751"
    INDEX 01 01:25:74
  TRACK 67 AUDIO
    TITLE "0:"
    INDEX 01 01:28:37
  TRACK 68 AUDIO
    TITLE "13:cjc020_3752"
    INDEX 01 01:29:15
  TRACK 69 AUDIO
    TITLE "0:"
    INDEX 01 01:30:46
  TRACK 70 AUDIO
    TITLE "14:cjc020_3753"
    INDEX 01 01:30:48
  TRACK 71 AUDIO
    TITLE "0:"
    INDEX 01 01:32:12
